<svg xmlns="http://www.w3.org/2000/svg" width="4096" height="4096" viewBox="0 0 4096 4096" version="1.1"><path d="M 3238.922 1561.552 C 3229.726 1563.217, 3217.187 1567.103, 3208.656 1570.930 C 3199.991 1574.818, 1810.957 2376.513, 1798.626 2384.743 C 1770.139 2403.757, 1750.509 2434.115, 1744.546 2468.381 C 1742.553 2479.833, 1742.553 2501.167, 1744.546 2512.619 C 1750.509 2546.884, 1770.135 2577.236, 1798.626 2596.259 C 1804.057 2599.884, 1861.375 2633.292, 1926 2670.497 C 2038.479 2735.253, 2043.785 2738.436, 2050.168 2744.980 C 2057.944 2752.951, 2063.248 2762.966, 2065.641 2774.191 C 2067.691 2783.809, 2066.988 2798.152, 2064.033 2807 C 2057.067 2827.862, 2008.114 2909.001, 1982.283 2942.500 C 1981.011 2944.150, 1979.639 2945.953, 1979.235 2946.506 C 1973.228 2954.731, 1950.595 2983.589, 1949.046 2985 C 1948.744 2985.275, 1947.147 2987.099, 1945.498 2989.054 C 1928.762 3008.893, 1914.922 3023.892, 1893.482 3045.428 C 1879.978 3058.992, 1861.128 3076.715, 1851.393 3085 C 1849.777 3086.375, 1845.315 3090.234, 1841.478 3093.575 C 1834.272 3099.849, 1810.512 3118.968, 1805.532 3122.500 C 1803.980 3123.600, 1801.314 3125.643, 1799.606 3127.039 C 1797.898 3128.436, 1795.533 3130.236, 1794.352 3131.039 C 1789.364 3134.431, 1775.460 3144.449, 1775 3144.982 C 1774.465 3145.602, 1745.883 3164.446, 1733.794 3172.148 C 1718.203 3182.081, 1690.512 3197.618, 1666 3210.186 C 1655.534 3215.552, 1650.423 3217.976, 1627 3228.690 C 1622.875 3230.577, 1618.150 3232.741, 1616.500 3233.500 C 1614.850 3234.259, 1608.325 3236.961, 1602 3239.504 C 1595.675 3242.047, 1589.600 3244.514, 1588.500 3244.985 C 1585.076 3246.452, 1562.805 3254.717, 1556.500 3256.860 C 1553.200 3257.982, 1548.025 3259.784, 1545 3260.864 C 1540.286 3262.548, 1508.387 3272.423, 1504 3273.556 C 1503.175 3273.769, 1498.675 3275.055, 1494 3276.412 C 1489.325 3277.770, 1484.375 3279.112, 1483 3279.395 C 1481.625 3279.678, 1479.183 3280.178, 1477.573 3280.506 C 1475.963 3280.835, 1471.463 3281.921, 1467.573 3282.921 C 1459.742 3284.933, 1451.825 3286.788, 1448 3287.508 C 1446.625 3287.766, 1442.350 3288.636, 1438.500 3289.440 C 1426.201 3292.010, 1413.093 3294.421, 1405.500 3295.510 C 1403.300 3295.825, 1399.250 3296.499, 1396.500 3297.008 C 1393.750 3297.516, 1389.700 3298.156, 1387.500 3298.429 C 1380.172 3299.339, 1374.557 3300.098, 1368.500 3300.999 C 1365.200 3301.489, 1359.350 3302.175, 1355.500 3302.522 C 1351.650 3302.869, 1347.600 3303.293, 1346.500 3303.465 C 1345.400 3303.636, 1340 3304.107, 1334.500 3304.510 C 1329 3304.914, 1323.616 3305.407, 1322.536 3305.606 C 1309.808 3307.951, 1206.924 3307.881, 1191.748 3305.517 C 1190.512 3305.324, 1185.450 3304.828, 1180.500 3304.415 C 1175.550 3304.002, 1170.600 3303.572, 1169.500 3303.459 C 1168.400 3303.346, 1164.350 3302.954, 1160.500 3302.588 C 1156.650 3302.222, 1152.375 3301.741, 1151 3301.519 C 1148.497 3301.115, 1144 3300.512, 1136.500 3299.575 C 1126.503 3298.325, 1122.981 3297.808, 1115.500 3296.493 C 1111.100 3295.719, 1106.150 3294.888, 1104.500 3294.646 C 1102.040 3294.285, 1093.781 3292.762, 1081.670 3290.436 C 1080.664 3290.242, 1079.089 3289.856, 1078.170 3289.578 C 1077.252 3289.300, 1074.925 3288.814, 1073 3288.500 C 1071.075 3288.186, 1068.825 3287.737, 1068 3287.503 C 1067.175 3287.270, 1065.375 3286.885, 1064 3286.648 C 1062.625 3286.411, 1059.700 3285.738, 1057.500 3285.153 C 1055.300 3284.567, 1051.986 3283.827, 1050.135 3283.509 C 1043.230 3282.323, 996.104 3269.283, 990.500 3267.008 C 989.400 3266.562, 981.975 3264.108, 974 3261.556 C 966.025 3259.004, 958.600 3256.531, 957.500 3256.059 C 956.400 3255.588, 953.925 3254.661, 952 3254 C 950.075 3253.339, 947.600 3252.446, 946.500 3252.016 C 945.400 3251.586, 941.350 3250.020, 937.500 3248.536 C 920.008 3241.795, 900.991 3233.765, 886.731 3227.099 C 881.908 3224.845, 877.774 3223, 877.545 3223 C 877.315 3223, 869.728 3219.414, 860.684 3215.030 C 839.051 3204.544, 832.139 3202.654, 817.596 3203.245 C 810.024 3203.552, 804.435 3204.370, 800 3205.821 C 781.065 3212.014, 764.673 3228.559, 758.705 3247.500 C 755.543 3257.536, 755.550 3276.500, 758.718 3286.500 C 763.374 3301.197, 774.162 3314.541, 788.143 3322.898 C 836.894 3352.040, 909.761 3390.491, 963.500 3415.431 C 1190.409 3520.737, 1430.648 3581.977, 1677.500 3597.439 C 1726.913 3600.534, 1758.774 3601.252, 1821.500 3600.683 C 1881.875 3600.136, 1895.842 3599.647, 1941.500 3596.485 C 2178.704 3580.054, 2411.498 3520.968, 2631.763 3421.289 C 2658.245 3409.304, 2725.906 3375.796, 2750.500 3362.485 C 2799.292 3336.077, 2852.173 3304.710, 2890.500 3279.442 C 2903.222 3271.054, 2914.133 3265.395, 2919.473 3264.414 C 2920.588 3264.210, 2923.525 3263.674, 2926 3263.223 C 2934.910 3261.602, 2949.386 3262.950, 2956.694 3266.083 C 2959.055 3267.095, 3015.631 3299.466, 3082.419 3338.019 C 3151.259 3377.756, 3207.578 3409.634, 3212.455 3411.622 C 3227.848 3417.898, 3238.635 3420.151, 3256.079 3420.734 C 3268.031 3421.133, 3273.968 3420.862, 3281.579 3419.570 C 3335.926 3410.345, 3378.173 3368.471, 3387.467 3314.619 C 3388.836 3306.690, 3389 3218.360, 3389 2490.500 C 3389 1762.640, 3388.836 1674.310, 3387.467 1666.381 C 3381.483 1631.706, 3361.883 1601.427, 3332.851 1582.008 C 3317.242 1571.567, 3300.147 1564.627, 3282.500 1561.567 C 3271.471 1559.655, 3249.442 1559.647, 3238.922 1561.552 M 2690 2221.008 C 2594.786 2225.876, 2503.922 2263.038, 2432.069 2326.500 C 2421.389 2335.933, 2415.676 2343.194, 2411.397 2352.770 C 2401.100 2375.816, 2406.219 2404.218, 2423.854 2421.882 C 2427.509 2425.544, 2432.300 2429.719, 2434.500 2431.162 C 2436.700 2432.604, 2483.950 2460.013, 2539.500 2492.071 C 2631.364 2545.085, 2649.746 2555.236, 2656.335 2556.593 C 2674.445 2560.323, 2690.644 2557.858, 2704.887 2549.203 C 2717.713 2541.409, 2715.724 2544.503, 2784.168 2425.862 C 2819.185 2365.163, 2848.508 2313.850, 2849.331 2311.834 C 2853.551 2301.495, 2853.602 2284.881, 2849.451 2272.412 C 2844.279 2256.875, 2832.004 2242.924, 2817.345 2235.923 C 2795.689 2225.580, 2736.400 2218.636, 2690 2221.008 M 2960.500 2336.454 C 2948.097 2339.025, 2938.658 2343.897, 2929.407 2352.500 C 2924.643 2356.930, 2916.840 2369.967, 2860.894 2466.950 C 2826.169 2527.148, 2796.951 2578.282, 2795.965 2580.582 C 2793.337 2586.714, 2791.737 2599.002, 2792.552 2606.793 C 2794.385 2624.297, 2802.319 2639.231, 2815.440 2649.875 C 2821.256 2654.593, 3024.054 2772.412, 3032.427 2775.938 C 3054.519 2785.239, 3077.837 2782.504, 3096.719 2768.394 C 3110.425 2758.151, 3117.566 2745.662, 3122.054 2724.079 C 3146.849 2604.850, 3117.029 2478.548, 3041.037 2380.923 C 3014.173 2346.413, 2999.838 2336.413, 2976 2335.552 C 2970.775 2335.364, 2963.800 2335.769, 2960.500 2336.454 M 2352.750 2499.485 C 2349.588 2500.119, 2347 2500.520, 2347 2500.376 C 2347 2500.232, 2343.856 2501.410, 2340.013 2502.995 C 2318.553 2511.844, 2305.839 2527.892, 2300.595 2552.750 C 2288.897 2608.208, 2288.540 2665.968, 2299.551 2721.762 C 2313.713 2793.522, 2349.405 2865.572, 2396.759 2917.993 C 2411.461 2934.268, 2419.402 2939.327, 2436.773 2943.486 C 2455.076 2947.867, 2479.656 2940.491, 2493.519 2926.457 C 2499.522 2920.380, 2625.573 2701.717, 2627.772 2693.567 C 2629.898 2685.687, 2629.843 2671.425, 2627.655 2663 C 2625.435 2654.452, 2621.089 2645.788, 2615.619 2639 C 2611.380 2633.740, 2606.161 2630.599, 2495.963 2567 C 2420.582 2523.494, 2379.316 2500.228, 2376.620 2499.712 C 2369.646 2498.379, 2358.785 2498.275, 2352.750 2499.485 M 2742.500 2721.715 C 2728.590 2723.638, 2715.357 2729.990, 2705.445 2739.500 C 2699.215 2745.478, 2573.760 2963.002, 2571.328 2972.042 C 2569.260 2979.733, 2569.057 2994.088, 2570.905 3002 C 2572.680 3009.600, 2579.179 3022.552, 2584.078 3028.254 C 2593.987 3039.787, 2607.403 3047.013, 2626 3050.832 C 2681.444 3062.219, 2739.093 3062.255, 2795.030 3050.936 C 2858.695 3038.054, 2921.537 3008.791, 2971.916 2968.567 C 2985.238 2957.930, 3000.881 2943.956, 3002.297 2941.428 C 3002.959 2940.246, 3004.823 2937.303, 3006.440 2934.889 C 3011.092 2927.944, 3015.058 2915.179, 3015.668 2905.193 C 3016.354 2893.950, 3014.289 2884.024, 3009.073 2873.500 C 3001.519 2858.256, 3008.695 2862.979, 2882 2789.870 C 2819.025 2753.530, 2766.600 2723.616, 2765.500 2723.394 C 2754.513 2721.177, 2749.195 2720.789, 2742.500 2721.715" stroke="none" fill="#ec4433" fill-rule="evenodd"/><path d="M 2227.500 495.670 C 2130.386 499.531, 2053.137 507.285, 1964.500 522.070 C 1721.397 562.618, 1489.915 646.924, 1276 772.820 C 1252.633 786.573, 1224.643 803.937, 1205.500 816.558 C 1192.778 824.946, 1181.867 830.605, 1176.527 831.586 C 1175.412 831.790, 1172.475 832.326, 1170 832.777 C 1161.215 834.376, 1146.077 833.015, 1140 830.082 C 1138.075 829.152, 1081.746 796.778, 1014.824 758.138 C 945.766 718.266, 889.428 686.368, 884.545 684.378 C 869.152 678.102, 858.365 675.849, 840.921 675.266 C 828.969 674.867, 823.032 675.138, 815.421 676.430 C 761.074 685.655, 718.827 727.529, 709.533 781.381 C 708.164 789.310, 708 877.640, 708 1605.500 C 708 2333.360, 708.164 2421.690, 709.533 2429.619 C 715.508 2464.240, 735.162 2494.603, 764.149 2513.992 C 780.086 2524.652, 797.011 2531.445, 815.421 2534.570 C 823.032 2535.862, 828.969 2536.133, 840.921 2535.734 C 858.357 2535.151, 869.152 2532.898, 884.519 2526.633 C 893.443 2522.995, 2280.192 1723.245, 2298.298 1711.294 C 2333.151 1688.291, 2354 1648.693, 2354 1605.500 C 2354 1562.307, 2333.148 1522.704, 2298.298 1499.707 C 2292.909 1496.151, 2235.175 1462.537, 2170 1425.009 C 2060.009 1361.677, 2051.056 1356.323, 2045.317 1350.451 C 2038.052 1343.016, 2032.691 1332.751, 2030.359 1321.809 C 2028.309 1312.191, 2029.012 1297.848, 2031.967 1289 C 2038.933 1268.138, 2087.886 1186.999, 2113.717 1153.500 C 2114.989 1151.850, 2116.361 1150.047, 2116.765 1149.494 C 2122.772 1141.269, 2145.405 1112.411, 2146.954 1111 C 2147.256 1110.725, 2148.853 1108.901, 2150.502 1106.946 C 2167.238 1087.107, 2181.078 1072.108, 2202.518 1050.572 C 2216.022 1037.008, 2234.872 1019.285, 2244.607 1011 C 2246.223 1009.625, 2250.685 1005.766, 2254.522 1002.425 C 2261.728 996.151, 2285.488 977.032, 2290.468 973.500 C 2292.020 972.400, 2294.686 970.357, 2296.394 968.961 C 2298.102 967.564, 2300.467 965.764, 2301.648 964.961 C 2306.636 961.569, 2320.540 951.551, 2321 951.018 C 2321.535 950.398, 2350.117 931.554, 2362.206 923.852 C 2377.797 913.919, 2405.488 898.382, 2430 885.814 C 2440.466 880.448, 2445.577 878.024, 2469 867.310 C 2473.125 865.423, 2477.850 863.259, 2479.500 862.500 C 2481.150 861.741, 2487.675 859.039, 2494 856.496 C 2500.325 853.953, 2506.400 851.486, 2507.500 851.015 C 2510.924 849.548, 2533.195 841.283, 2539.500 839.140 C 2542.800 838.018, 2547.975 836.216, 2551 835.136 C 2555.714 833.452, 2587.613 823.577, 2592 822.444 C 2592.825 822.231, 2597.325 820.945, 2602 819.588 C 2606.675 818.230, 2611.738 816.867, 2613.250 816.559 C 2614.762 816.252, 2617.205 815.752, 2618.677 815.448 C 2620.150 815.145, 2624.537 814.079, 2628.427 813.079 C 2636.258 811.067, 2644.175 809.212, 2648 808.492 C 2649.375 808.234, 2653.650 807.364, 2657.500 806.560 C 2669.799 803.990, 2682.907 801.579, 2690.500 800.490 C 2692.700 800.175, 2696.750 799.501, 2699.500 798.992 C 2702.250 798.484, 2706.300 797.844, 2708.500 797.571 C 2715.828 796.661, 2721.443 795.902, 2727.500 795.001 C 2730.800 794.511, 2736.650 793.825, 2740.500 793.478 C 2744.350 793.131, 2748.400 792.707, 2749.500 792.535 C 2750.600 792.364, 2756 791.893, 2761.500 791.490 C 2767 791.086, 2772.384 790.593, 2773.464 790.394 C 2786.192 788.049, 2889.076 788.119, 2904.252 790.483 C 2905.488 790.676, 2910.550 791.172, 2915.500 791.585 C 2920.450 791.998, 2925.400 792.428, 2926.500 792.541 C 2927.600 792.654, 2931.650 793.046, 2935.500 793.412 C 2939.350 793.778, 2943.625 794.259, 2945 794.481 C 2947.424 794.872, 2950.620 795.302, 2960 796.500 C 2962.475 796.816, 2966.300 797.305, 2968.500 797.588 C 2970.700 797.870, 2976.100 798.734, 2980.500 799.507 C 2984.900 800.281, 2989.850 801.112, 2991.500 801.354 C 2993.960 801.715, 3002.219 803.238, 3014.330 805.564 C 3015.336 805.758, 3016.911 806.144, 3017.830 806.422 C 3018.748 806.700, 3021.075 807.186, 3023 807.500 C 3024.925 807.814, 3027.175 808.263, 3028 808.497 C 3028.825 808.730, 3030.625 809.115, 3032 809.352 C 3033.375 809.589, 3036.300 810.262, 3038.500 810.847 C 3040.700 811.433, 3044.014 812.173, 3045.865 812.491 C 3052.770 813.677, 3099.896 826.717, 3105.500 828.992 C 3106.600 829.438, 3114.025 831.892, 3122 834.444 C 3129.975 836.996, 3137.400 839.469, 3138.500 839.941 C 3139.600 840.412, 3142.075 841.339, 3144 842 C 3145.925 842.661, 3148.400 843.554, 3149.500 843.984 C 3150.600 844.414, 3154.650 845.980, 3158.500 847.464 C 3175.992 854.205, 3195.009 862.235, 3209.269 868.901 C 3214.092 871.155, 3218.226 873, 3218.455 873 C 3218.685 873, 3226.272 876.586, 3235.316 880.970 C 3257.018 891.489, 3263.983 893.389, 3278.458 892.741 C 3285.748 892.415, 3291.709 891.534, 3296 890.150 C 3315.009 884.018, 3331.206 867.676, 3337.282 848.500 C 3340.450 838.500, 3340.457 819.536, 3337.295 809.500 C 3332.765 795.122, 3321.701 781.415, 3308.004 773.211 C 3246.301 736.253, 3163.057 693.489, 3093 662.759 C 2923.585 588.449, 2750.152 539.210, 2567.500 513.568 C 2504.699 504.752, 2438.058 498.861, 2369 496.021 C 2347.637 495.142, 2247.045 494.893, 2227.500 495.670 M 1364 1037.057 C 1277.367 1041.364, 1191.253 1073.803, 1124.084 1127.433 C 1110.762 1138.070, 1095.119 1152.044, 1093.703 1154.572 C 1093.041 1155.754, 1091.177 1158.697, 1089.560 1161.111 C 1084.908 1168.056, 1080.942 1180.821, 1080.332 1190.807 C 1079.646 1202.050, 1081.711 1211.976, 1086.927 1222.500 C 1094.481 1237.744, 1087.305 1233.021, 1214 1306.130 C 1276.975 1342.470, 1329.400 1372.384, 1330.500 1372.607 C 1339.373 1374.403, 1346.334 1375.046, 1351 1374.501 C 1366.882 1372.645, 1379.906 1366.718, 1390.555 1356.500 C 1396.785 1350.522, 1522.240 1132.998, 1524.672 1123.958 C 1526.740 1116.267, 1526.943 1101.912, 1525.095 1094 C 1523.312 1086.367, 1516.814 1073.440, 1511.864 1067.678 C 1502.081 1056.291, 1488.528 1048.988, 1470 1045.120 C 1437.183 1038.269, 1398.620 1035.335, 1364 1037.057 M 1632.780 1153.068 C 1620.859 1155.960, 1610.143 1161.787, 1602.481 1169.543 C 1596.478 1175.620, 1470.427 1394.283, 1468.228 1402.433 C 1466.102 1410.313, 1466.157 1424.575, 1468.345 1433 C 1470.565 1441.548, 1474.911 1450.212, 1480.381 1457 C 1484.620 1462.260, 1489.839 1465.401, 1600.036 1529 C 1703.295 1588.595, 1715.894 1595.607, 1721.379 1596.533 C 1728.247 1597.692, 1736.176 1597.723, 1743.241 1596.620 C 1745.849 1596.213, 1748.099 1595.928, 1748.241 1595.986 C 1748.383 1596.045, 1751.757 1594.750, 1755.737 1593.108 C 1776.519 1584.539, 1790.044 1568.193, 1794.874 1545.810 C 1802.537 1510.302, 1805.528 1474.372, 1803.892 1437.481 C 1800.245 1355.186, 1772.326 1275.101, 1724.349 1209.310 C 1705.221 1183.081, 1687.134 1163.664, 1677.085 1158.571 C 1674.193 1157.105, 1664.093 1153.593, 1659.500 1152.457 C 1653.180 1150.893, 1640.559 1151.182, 1632.780 1153.068 M 1029.500 1315.074 C 1018.147 1316.601, 1008.787 1320.480, 999.281 1327.596 C 986.312 1337.305, 978.443 1350.473, 974.565 1368.955 C 963.818 1420.171, 962.786 1474.727, 971.576 1526.952 C 984.256 1602.293, 1020.699 1678.380, 1070.759 1734.029 C 1087.482 1752.619, 1100.456 1759.665, 1119.500 1760.499 C 1138.060 1761.311, 1153.392 1755.777, 1166.593 1743.500 C 1171.357 1739.070, 1179.160 1726.033, 1235.106 1629.050 C 1269.831 1568.852, 1299.049 1517.718, 1300.035 1515.418 C 1302.663 1509.286, 1304.263 1496.998, 1303.448 1489.207 C 1301.615 1471.703, 1293.681 1456.769, 1280.560 1446.125 C 1274.744 1441.407, 1071.946 1323.588, 1063.573 1320.062 C 1052.894 1315.566, 1039.938 1313.669, 1029.500 1315.074 M 1421.803 1537.491 C 1421.636 1537.637, 1418.940 1537.990, 1415.811 1538.276 C 1403.675 1539.386, 1389.550 1546.085, 1380.260 1555.138 C 1376.444 1558.856, 1362.874 1581.661, 1311.832 1670.138 C 1276.815 1730.837, 1247.492 1782.150, 1246.669 1784.166 C 1242.449 1794.505, 1242.398 1811.119, 1246.549 1823.588 C 1251.645 1838.896, 1264.034 1853.101, 1278.155 1859.827 C 1287.960 1864.497, 1290.096 1865.109, 1308.276 1868.452 C 1435.930 1891.924, 1566.428 1855.616, 1663.931 1769.500 C 1674.611 1760.067, 1680.324 1752.806, 1684.603 1743.230 C 1694.900 1720.184, 1689.781 1691.782, 1672.146 1674.118 C 1668.491 1670.456, 1663.700 1666.281, 1661.500 1664.838 C 1659.300 1663.396, 1612.050 1635.988, 1556.500 1603.932 C 1472.162 1555.262, 1441.083 1538.049, 1439.241 1538.988 C 1439.099 1539.060, 1437.074 1538.856, 1434.741 1538.533 C 1428.803 1537.712, 1422.163 1537.177, 1421.803 1537.491" stroke="none" fill="#eca433" fill-rule="evenodd"/></svg>